<?xml version="1.0" encoding="utf-8"?>
<!-- Svg Vector Icons : http://www.onlinewebfonts.com/icon -->
<!DOCTYPE svg PUBLIC "-//W3C//DTD SVG 1.1//EN" "http://www.w3.org/Graphics/SVG/1.1/DTD/svg11.dtd">
<svg version="1.1" xmlns="http://www.w3.org/2000/svg" xmlns:xlink="http://www.w3.org/1999/xlink" x="0px" y="0px" viewBox="0 0 1000 1000" enable-background="new 0 0 1000 1000" xml:space="preserve">
<metadata> Svg Vector Icons : http://www.onlinewebfonts.com/icon </metadata>
<g><path d="M775.9,477.4L318.3,19.8c-6.5-6.5-14.1-9.8-22.6-9.8c-8.5,0-16,3.3-22.6,9.8l-49.1,49.1c-6.6,6.5-9.8,14.1-9.8,22.6c0,8.5,3.3,16,9.8,22.6L610,500L224.1,885.9c-6.6,6.5-9.8,14.1-9.8,22.6c0,8.5,3.3,16.1,9.8,22.6l49.1,49.1c6.5,6.6,14.1,9.8,22.6,9.8c8.5,0,16-3.3,22.6-9.8l457.6-457.6c6.5-6.5,9.8-14.1,9.8-22.6S782.5,484,775.9,477.4z"/></g>
</svg>