<?xml version="1.0" encoding="utf-8"?>
<!-- Svg Vector Icons : http://www.onlinewebfonts.com/icon -->
<!DOCTYPE svg PUBLIC "-//W3C//DTD SVG 1.1//EN" "http://www.w3.org/Graphics/SVG/1.1/DTD/svg11.dtd">
<svg version="1.1" xmlns="http://www.w3.org/2000/svg" xmlns:xlink="http://www.w3.org/1999/xlink" x="0px" y="0px" viewBox="0 0 1000 1000" enable-background="new 0 0 1000 1000" xml:space="preserve">
<metadata> Svg Vector Icons : http://www.onlinewebfonts.com/icon </metadata>
<g><g transform="translate(0.000000,511.000000) scale(0.100000,-0.100000)"><path d="M4240,4960.3c-1442-252-2570-988-3356-2186c-546-836-784-1656-784-2700c0-448,40-770,148-1196c152-596,436-1194,814-1702c716-964,1798-1652,2968-1884c402-80,488-86,1050-78c494,8,578,14,820,62c1026,202,1842,634,2572,1362c746,748,1180,1586,1378,2658c46,250,50,326,50,800c0,468-6,556-50,804c-120,688-398,1386-784,1966c-474,714-1106,1254-1936,1656c-758,366-1312,490-2180,486C4584,5006.3,4464,4998.3,4240,4960.3z M5126,4664.3c78-34,240-206,354-378c238-362,430-916,590-1710l14-66H5000c-1022,0-1082,2-1072,36c6,18,42,178,82,354c144,626,302,1062,490,1356C4732,4616.3,4928,4746.3,5126,4664.3z M4120,4266.3c-224-472-354-864-472-1436c-30-138-62-266-72-284c-16-34-68-36-646-36c-346,0-630,6-630,12c0,6,60,128,132,270c320,628,732,1122,1208,1444c152,104,550,314,594,314C4246,4550.3,4196,4422.3,4120,4266.3z M6062,4410.3c620-312,1108-836,1520-1628l142-272h-650h-648l-24,126c-52,276-206,860-292,1114c-52,148-148,382-216,518c-68,138-126,256-130,266C5756,4554.3,5868,4506.3,6062,4410.3z M2948,4104.3c-372-392-636-780-886-1304c-56-120-118-234-136-254c-28-32-74-36-422-36h-388l44,74c96,162,340,466,540,674c366,380,714,644,1160,880c116,62,214,112,218,112C3082,4250.3,3024,4184.3,2948,4104.3z M7260,4076.3c644-364,1140-828,1578-1472l64-94l-406,4l-406,6l-70,140c-332,674-544,992-942,1418C6902,4266.3,6924,4266.3,7260,4076.3z M1790,2136.3c-44-112-194-756-228-986c-38-248-82-706-82-842v-58H948H418l12,116c80,720,162,1068,370,1550c118,274,74,254,576,254C1776,2170.3,1804,2168.3,1790,2136.3z M3498,2086.3c0-48-30-478-64-956l-64-870l-778-6l-778-4l14,234c16,282,74,704,130,966c72,330,166,644,206,684c34,34,82,36,686,36h650L3498,2086.3z M6158,2016.3c58-410,122-1244,122-1610v-156H5000c-704,0-1280,6-1280,16c10,558,104,1744,150,1880c6,18,252,24,1138,24h1128L6158,2016.3z M7846,2136.3c34-40,148-430,212-726c58-280,102-616,116-904l12-256h-772h-772l-10,106c-6,56-34,428-62,824s-56,780-62,856l-14,134h660C7756,2170.3,7816,2166.3,7846,2136.3z M9084,2136.3c88-100,256-526,346-874c70-270,116-560,140-846l12-166h-528h-528l-12,246c-24,470-110,986-242,1440l-68,234h426C9008,2170.3,9058,2166.3,9084,2136.3z M1490-263.7c38-528,114-994,230-1406c42-148,84-286,90-306c14-32-12-34-422-30l-438,6l-64,120c-148,278-328,822-384,1160c-36,208-78,598-68,616c4,8,242,14,526,14h516L1490-263.7z M3432-929.7c36-456,70-886,76-954l10-126h-656c-530,0-662,6-680,28c-60,72-202,592-272,1002c-52,308-100,812-82,860c10,26,108,30,776,26l766-6L3432-929.7z M6280-223.7c-2-356-66-1182-126-1606l-24-170l-1116-6l-1114-4l-20,44c-10,26-50,410-90,856s-78,858-84,916l-12,104h1294h1292V-223.7z M8172-319.7c-14-270-54-576-114-870c-56-280-192-742-232-784c-30-34-86-36-680-36h-646v64c0,76,114,1600,132,1752l10,104h772h772L8172-319.7z M9580-139.7c0-106-104-740-150-916c-88-338-282-828-364-918c-30-32-74-36-456-36h-424l64,216c134,442,236,1008,262,1470l14,234h526h528V-139.7z M1944-2383.7c18-20,94-162,172-316c228-448,476-806,802-1154c80-86,134-156,122-156c-36,0-340,166-540,296c-350,226-660,494-922,796c-176,202-418,522-418,552c0,8,170,16,376,16C1870-2349.7,1918-2353.7,1944-2383.7z M8848-2373.7c-8-14-88-126-180-248c-402-544-972-1030-1576-1340c-212-110-216-120,90,220c320,354,534,672,734,1092c60,126,124,246,140,266c26,30,74,34,418,34C8780-2349.7,8860-2355.7,8848-2373.7z M3628-2533.7c136-638,290-1120,482-1508c158-318,160-308-58-208c-668,300-1238,898-1662,1738l-70,142h636h638L3628-2533.7z M6060-2393.7c0-14-22-124-50-246c-182-812-416-1366-700-1660c-186-192-334-218-520-90c-292,202-598,866-778,1690c-30,132-58,260-62,286l-10,44h1060C5834-2369.7,6060-2375.7,6060-2393.7z M7662-2413.7c-28-76-240-456-336-606c-148-228-330-448-538-652c-216-210-354-316-586-454c-148-88-444-228-458-216c-4,4,60,138,142,298c176,344,276,636,414,1204c56,232,106,432,110,446c6,18,152,24,638,24h632L7662-2413.7z"/></g></g>
</svg>